<?xml version="1.0" encoding="utf-8" ?>
<svg xmlns="http://www.w3.org/2000/svg" xmlns:xlink="http://www.w3.org/1999/xlink" width="1024" height="1024">
	<path fill="#4381DF" d="M421.18 929.009C410.418 927.163 399.889 924.022 389.459 920.839Q376.229 916.876 363.273 912.091Q350.317 907.307 337.687 901.72Q325.056 896.133 312.8 889.766Q300.545 883.399 288.712 876.276Q284.28 873.561 279.915 870.738Q275.55 867.916 271.255 864.988Q266.96 862.061 262.738 859.029Q258.515 855.998 254.368 852.865Q250.22 849.732 246.15 846.499Q242.08 843.265 238.09 839.934Q234.1 836.603 230.192 833.176Q226.285 829.748 222.461 826.227Q218.638 822.706 214.901 819.092Q211.165 815.479 207.517 811.776Q203.87 808.073 200.314 804.282Q196.757 800.491 193.294 796.615Q189.831 792.738 186.463 788.779Q183.096 784.82 179.825 780.78Q176.555 776.74 173.384 772.621Q170.213 768.503 167.143 764.308Q164.073 760.114 161.106 755.846Q158.139 751.578 155.277 747.239Q152.414 742.9 149.658 738.493Q146.903 734.086 144.255 729.613Q141.607 725.14 139.069 720.604Q136.531 716.068 134.103 711.472Q131.676 706.875 129.362 702.221Q127.047 697.567 124.847 692.858Q122.646 688.149 120.561 683.388Q118.475 678.627 116.506 673.816Q114.537 669.006 112.686 664.149Q110.835 659.292 109.102 654.391Q107.369 649.49 105.757 644.549Q104.144 639.608 102.652 634.629Q101.159 629.65 99.7888 624.636Q98.4183 619.622 97.1701 614.576Q95.9179 609.487 94.7909 604.368Q93.664 599.249 92.6631 594.105Q91.6621 588.96 90.7878 583.792Q89.9134 578.625 89.1662 573.437Q88.4189 568.249 87.7993 563.045Q87.1796 557.84 86.6879 552.622Q86.1962 547.404 85.8327 542.176Q85.4692 536.947 85.2342 531.711Q84.9992 526.475 84.8927 521.235Q84.7863 515.995 84.8085 510.754Q84.8308 505.513 84.9817 500.274Q85.1326 495.035 85.412 489.801Q85.6915 484.567 86.0993 479.342Q86.5071 474.117 87.0431 468.903Q87.5791 463.689 88.2429 458.49Q88.9067 453.291 89.6979 448.11Q90.4892 442.929 91.4073 437.769Q92.3255 432.609 93.3701 427.473Q94.4146 422.337 95.585 417.228Q96.7553 412.119 98.0507 407.04Q99.3461 401.962 100.766 396.917Q102.185 391.871 103.728 386.862Q105.272 381.854 106.937 376.884Q108.603 371.915 110.39 366.987Q112.177 362.06 114.084 357.179Q115.992 352.297 118.018 347.463Q120.045 342.63 122.19 337.848Q124.335 333.065 126.596 328.337Q128.858 323.609 131.235 318.938Q133.612 314.267 136.102 309.655Q138.593 305.044 141.197 300.495Q143.8 295.946 146.514 291.462Q149.227 286.975 152.05 282.556Q154.872 278.136 157.803 273.788Q160.733 269.439 163.769 265.164Q166.805 260.888 169.946 256.689Q173.086 252.489 176.328 248.368Q179.571 244.247 182.913 240.207Q186.256 236.167 189.697 232.21Q193.138 228.253 196.675 224.382Q200.212 220.511 203.843 216.727Q207.474 212.944 211.197 209.251Q214.919 205.559 218.732 201.958Q222.544 198.358 226.444 194.852Q230.344 191.347 234.328 187.938Q238.313 184.529 242.38 181.219Q246.447 177.909 250.594 174.7Q254.741 171.491 258.966 168.385Q263.191 165.279 267.49 162.277Q271.79 159.276 276.162 156.381Q280.534 153.486 284.976 150.699Q289.418 147.912 293.927 145.235Q298.436 142.558 303.01 139.993Q307.583 137.428 312.218 134.976Q316.853 132.523 321.547 130.186Q326.241 127.848 330.991 125.626Q335.74 123.405 340.543 121.3Q345.346 119.196 350.2 117.21Q355.053 115.225 359.953 113.359Q364.854 111.493 369.799 109.747Q374.743 108.002 379.73 106.379Q384.716 104.756 389.74 103.256Q394.765 101.756 399.825 100.38Q404.885 99.0032 409.977 97.7516Q415.059 96.4973 420.171 95.3678Q425.282 94.2383 430.42 93.2343Q435.557 92.2303 440.718 91.3523Q445.878 90.4743 451.059 89.723Q456.239 88.9716 461.437 88.3473Q466.634 87.7229 471.845 87.226Q477.056 86.7291 482.278 86.3599Q487.499 85.9907 492.729 85.7495Q497.958 85.5082 503.191 85.395Q508.425 85.2818 513.659 85.2968Q518.894 85.3118 524.127 85.4549Q529.36 85.598 534.587 85.8692Q539.815 86.1403 545.035 86.5394Q550.254 86.9384 555.462 87.4652Q560.67 87.9919 565.864 88.6459Q571.058 89.3 576.234 90.0809Q581.41 90.8619 586.565 91.7694Q591.721 92.6769 596.853 93.7103Q601.984 94.7437 607.089 95.9024Q612.194 97.0611 617.269 98.3444Q622.344 99.6277 627.386 101.035Q632.428 102.442 637.434 103.972Q642.44 105.502 647.407 107.155Q652.374 108.807 657.3 110.58Q662.225 112.354 667.105 114.247Q671.985 116.141 676.818 118.153Q681.65 120.165 686.432 122.295Q691.214 124.425 695.942 126.672Q700.67 128.918 705.342 131.28Q710.014 133.641 714.626 136.116Q719.239 138.591 723.789 141.179Q728.34 143.766 732.826 146.464Q736.545 148.722 740.218 151.055Q743.89 153.387 747.514 155.795Q751.138 158.202 754.713 160.682Q758.287 163.162 761.811 165.715Q765.334 168.267 768.805 170.891Q772.276 173.514 775.692 176.208Q779.109 178.902 782.47 181.664Q785.831 184.427 789.135 187.257Q792.44 190.087 795.686 192.984Q798.932 195.881 802.118 198.844Q805.304 201.806 808.43 204.833Q811.556 207.859 814.619 210.949Q817.682 214.038 820.682 217.19Q823.682 220.341 826.617 223.552Q829.552 226.764 832.421 230.034Q835.291 233.305 838.093 236.633Q840.895 239.962 843.628 243.346Q846.362 246.731 849.027 250.17Q851.691 253.609 854.285 257.102Q856.879 260.595 859.401 264.14Q861.924 267.685 864.374 271.281Q866.823 274.876 869.199 278.521Q871.576 282.166 873.877 285.858Q876.179 289.55 878.404 293.288Q880.63 297.026 882.78 300.809Q884.929 304.592 887.001 308.417Q889.073 312.243 891.067 316.11Q893.061 319.977 894.976 323.884Q896.891 327.791 898.725 331.735Q900.56 335.68 902.315 339.662Q904.069 343.643 905.742 347.659Q907.415 351.676 909.006 355.725Q914.967 371.385 919.863 387.409Q924.76 403.433 928.57 419.75C922.379 415.593 909.497 399.895 903.238 393.552C877.052 367.018 850.2 341.061 823.687 314.85L802.642 293.85C797.023 288.225 790.531 280.625 783.635 276.685C778.219 271.828 773.605 266.204 768.647 260.899C764.255 256.199 759.524 251.778 754.792 247.424C723.343 218.492 686.351 196.33 647.39 179.103C641.305 176.412 635.083 174.078 628.989 171.426C623.346 168.97 618.064 165.649 612.04 164.167C603.033 158.483 594.118 152.532 584.514 147.894Q582.887 147.121 581.244 146.383Q579.6 145.644 577.942 144.94Q576.284 144.236 574.612 143.566Q572.94 142.896 571.254 142.262Q569.568 141.627 567.869 141.027Q566.17 140.428 564.46 139.863Q562.749 139.299 561.026 138.771Q559.304 138.242 557.572 137.75Q555.839 137.257 554.096 136.8Q552.353 136.344 550.602 135.924Q548.85 135.504 547.09 135.12Q545.33 134.736 543.562 134.389Q541.794 134.042 540.02 133.732Q538.245 133.421 536.465 133.148Q534.684 132.875 532.898 132.638Q531.112 132.402 529.322 132.203Q527.532 132.004 525.737 131.842Q523.943 131.68 522.146 131.556Q520.349 131.431 518.55 131.344Q516.75 131.257 514.95 131.207Q513.149 131.157 511.347 131.145Q509.546 131.132 507.745 131.157Q505.943 131.182 504.143 131.245Q502.343 131.307 500.544 131.407Q498.745 131.507 496.949 131.644Q495.153 131.782 493.36 131.956Q491.567 132.131 489.778 132.342Q487.989 132.554 486.205 132.803Q484.421 133.052 482.642 133.338Q480.863 133.623 479.091 133.946Q477.319 134.269 475.554 134.628Q473.788 134.988 472.031 135.384C444.228 141.573 425.951 153.205 402.989 168.832C396.888 168.687 388.792 172.898 383.143 175.115C340.762 191.744 299.694 217.642 266.744 249.105Q264.247 251.464 261.794 253.868Q259.341 256.273 256.934 258.723Q254.526 261.173 252.165 263.667Q249.804 266.162 247.489 268.7Q245.174 271.238 242.908 273.819Q240.641 276.399 238.422 279.022Q236.204 281.644 234.035 284.307Q231.866 286.971 229.747 289.674Q227.628 292.377 225.559 295.12Q223.491 297.862 221.474 300.643Q219.457 303.423 217.492 306.24Q215.528 309.058 213.616 311.911Q211.704 314.765 209.845 317.654Q207.987 320.543 206.183 323.465Q204.378 326.388 202.629 329.344Q200.879 332.3 199.185 335.288Q197.491 338.276 195.853 341.296Q194.215 344.315 192.633 347.364Q191.052 350.413 189.527 353.491Q188.003 356.569 186.536 359.675Q185.069 362.781 183.66 365.914Q182.252 369.046 180.901 372.205Q179.551 375.363 178.26 378.546Q176.969 381.729 175.738 384.936Q174.506 388.142 173.335 391.371Q172.163 394.6 171.052 397.85Q169.941 401.101 168.89 404.371Q167.84 407.641 166.851 410.931Q165.861 414.22 164.933 417.527Q164.006 420.834 163.14 424.158Q162.274 427.482 161.47 430.822Q160.666 434.161 159.924 437.515C155.385 458.018 152.324 479.405 151.885 500.423C149.717 604.019 185.945 694.515 257.715 769.201Q265.949 777.6 274.522 785.653C282.259 796.809 295.945 807.38 305.757 817.048Q339.759 851.117 374.771 884.146L401.331 909.226C408.126 915.648 415.058 921.924 421.18 929.009Z"/>
	<path fill="#151B74" d="M402.989 168.832C425.951 153.205 444.228 141.573 472.031 135.384Q473.788 134.988 475.554 134.628Q477.319 134.269 479.091 133.946Q480.863 133.623 482.642 133.338Q484.421 133.052 486.205 132.803Q487.989 132.554 489.778 132.342Q491.567 132.131 493.36 131.956Q495.153 131.782 496.949 131.644Q498.745 131.507 500.544 131.407Q502.343 131.307 504.143 131.245Q505.943 131.182 507.745 131.157Q509.546 131.132 511.347 131.145Q513.149 131.157 514.95 131.207Q516.75 131.257 518.55 131.344Q520.349 131.431 522.146 131.556Q523.943 131.68 525.737 131.842Q527.532 132.004 529.322 132.203Q531.112 132.402 532.898 132.638Q534.684 132.875 536.465 133.148Q538.245 133.421 540.02 133.732Q541.794 134.042 543.562 134.389Q545.33 134.736 547.09 135.12Q548.85 135.504 550.602 135.924Q552.353 136.344 554.096 136.8Q555.839 137.257 557.572 137.75Q559.304 138.242 561.026 138.771Q562.749 139.299 564.46 139.863Q566.17 140.428 567.869 141.027Q569.568 141.627 571.254 142.262Q572.94 142.896 574.612 143.566Q576.284 144.236 577.942 144.94Q579.6 145.644 581.244 146.383Q582.887 147.121 584.514 147.894C594.118 152.532 603.033 158.483 612.04 164.167C618.064 165.649 623.346 168.97 628.989 171.426C635.083 174.078 641.305 176.412 647.39 179.103C686.351 196.33 723.343 218.492 754.792 247.424C759.524 251.778 764.255 256.199 768.647 260.899C773.605 266.204 778.219 271.828 783.635 276.685C790.531 280.625 797.023 288.225 802.642 293.85L823.687 314.85C850.2 341.061 877.052 367.018 903.238 393.552C909.497 399.895 922.379 415.593 928.57 419.75C933.724 439.324 936.24 459.236 937.812 479.394Q938.129 483.415 938.37 487.442Q938.611 491.469 938.776 495.499Q938.94 499.53 939.028 503.563Q939.117 507.596 939.129 511.63Q939.141 515.663 939.076 519.697Q939.012 523.73 938.871 527.762Q938.73 531.793 938.513 535.821Q938.296 539.849 938.003 543.872Q937.709 547.896 937.34 551.912Q936.97 555.929 936.525 559.939Q936.08 563.948 935.558 567.948Q935.037 571.948 934.44 575.938Q933.843 579.927 933.171 583.905Q932.499 587.882 931.751 591.846Q931.004 595.81 930.182 599.759Q929.359 603.708 928.462 607.641Q927.565 611.574 926.594 615.489Q925.623 619.405 924.577 623.301Q923.532 627.197 922.413 631.072Q921.294 634.948 920.102 638.802Q918.911 642.656 917.646 646.486Q916.381 650.317 915.044 654.122Q913.707 657.928 912.298 661.708Q910.889 665.488 909.409 669.241Q907.929 672.993 906.378 676.717Q904.827 680.441 903.206 684.135Q901.585 687.828 899.894 691.491Q898.203 695.153 896.444 698.783Q894.684 702.413 892.856 706.009Q891.027 709.605 889.131 713.165Q887.236 716.726 885.272 720.25Q883.309 723.774 881.28 727.26Q878.652 731.756 875.914 736.186Q873.177 740.616 870.333 744.979Q867.489 749.341 864.54 753.633Q861.59 757.925 858.537 762.144Q855.484 766.363 852.329 770.506Q849.175 774.649 845.92 778.715Q842.665 782.78 839.312 786.765Q835.96 790.75 832.511 794.652Q829.062 798.554 825.52 802.371Q821.977 806.188 818.342 809.917Q814.708 813.647 810.984 817.287Q807.26 820.927 803.448 824.475Q799.636 828.024 795.739 831.478Q791.842 834.933 787.862 838.292Q783.882 841.65 779.822 844.911Q775.762 848.172 771.623 851.333Q767.484 854.494 763.27 857.553Q759.056 860.612 754.768 863.568Q750.481 866.524 746.122 869.375Q741.764 872.225 737.338 874.969Q732.912 877.712 728.42 880.348Q723.928 882.983 719.374 885.508Q714.819 888.033 710.204 890.446Q705.59 892.86 700.918 895.16Q696.246 897.46 691.519 899.646Q686.792 901.832 682.014 903.903Q677.235 905.973 672.408 907.926Q667.581 909.88 662.707 911.715Q657.833 913.55 652.917 915.266Q648 916.983 643.043 918.578Q638.086 920.174 633.091 921.649Q628.097 923.124 623.068 924.477Q618.034 925.818 612.97 927.036Q607.905 928.254 602.812 929.349Q597.719 930.443 592.601 931.413Q587.483 932.383 582.343 933.228Q577.203 934.074 572.044 934.793Q566.885 935.513 561.71 936.107Q556.535 936.701 551.347 937.169Q546.159 937.637 540.961 937.979Q535.763 938.32 530.558 938.535Q525.354 938.749 520.145 938.838Q514.937 938.925 509.728 938.887Q504.519 938.848 499.312 938.682Q494.106 938.517 488.905 938.224Q483.704 937.932 478.512 937.513Q473.32 937.094 468.139 936.549Q462.959 936.004 457.793 935.333C445.591 933.808 433.018 932.381 421.18 929.009C415.058 921.924 408.126 915.648 401.331 909.226L374.771 884.146Q339.759 851.116 305.757 817.048C295.945 807.38 282.259 796.809 274.522 785.653Q265.949 777.6 257.715 769.201C185.945 694.515 149.717 604.019 151.885 500.423C152.324 479.405 155.385 458.018 159.924 437.515Q160.666 434.161 161.47 430.822Q162.274 427.482 163.14 424.158Q164.006 420.834 164.933 417.527Q165.861 414.22 166.851 410.931Q167.84 407.641 168.89 404.371Q169.941 401.101 171.052 397.85Q172.163 394.6 173.335 391.371Q174.506 388.142 175.738 384.936Q176.969 381.729 178.26 378.546Q179.551 375.363 180.901 372.205Q182.252 369.046 183.66 365.914Q185.069 362.781 186.536 359.675Q188.003 356.569 189.527 353.491Q191.052 350.413 192.633 347.364Q194.215 344.315 195.853 341.296Q197.491 338.276 199.185 335.288Q200.879 332.3 202.629 329.344Q204.378 326.388 206.183 323.466Q207.987 320.543 209.845 317.654Q211.704 314.765 213.616 311.911Q215.527 309.058 217.492 306.24Q219.457 303.423 221.474 300.643Q223.491 297.862 225.559 295.12Q227.628 292.377 229.747 289.674Q231.866 286.971 234.035 284.307Q236.204 281.644 238.422 279.022Q240.641 276.399 242.908 273.819Q245.174 271.238 247.489 268.7Q249.804 266.162 252.165 263.667Q254.526 261.173 256.934 258.723Q259.341 256.273 261.794 253.868Q264.247 251.464 266.744 249.105C299.694 217.642 340.762 191.744 383.143 175.115C388.792 172.898 396.888 168.687 402.989 168.832Z"/>
	<path fill="#CE6E48" d="M495.262 784.423C492.661 783.447 490.04 782.467 487.501 781.341Q486.144 780.741 484.818 780.073Q483.492 779.406 482.201 778.673Q480.911 777.94 479.658 777.144Q478.406 776.347 477.195 775.489Q475.984 774.63 474.818 773.713Q473.651 772.795 472.532 771.82Q471.413 770.845 470.344 769.815Q469.276 768.785 468.26 767.703Q467.244 766.621 466.283 765.489Q465.323 764.358 464.42 763.18Q463.517 762.001 462.675 760.779Q461.832 759.557 461.052 758.295Q460.271 757.032 459.555 755.732Q458.839 754.432 458.189 753.098Q457.539 751.764 456.956 750.399Q456.374 749.034 455.86 747.641Q455.343 746.239 454.895 744.813Q454.447 743.387 454.07 741.94Q453.692 740.494 453.386 739.031Q453.079 737.568 452.845 736.092Q452.61 734.616 452.448 733.13Q452.286 731.644 452.197 730.152Q452.108 728.66 452.091 727.166Q452.075 725.671 452.132 724.178Q452.189 722.684 452.319 721.195Q452.448 719.706 452.651 718.225Q452.853 716.744 453.128 715.275Q453.402 713.806 453.749 712.352Q454.095 710.898 454.511 709.463Q454.928 708.027 455.415 706.614Q455.901 705.201 456.456 703.813Q457.011 702.425 457.633 701.066Q458.256 699.723 458.946 698.412Q459.635 697.102 460.388 695.827Q461.142 694.552 461.957 693.316Q462.773 692.08 463.649 690.886Q464.525 689.693 465.46 688.544Q466.394 687.395 467.384 686.294Q468.374 685.193 469.418 684.142Q470.461 683.092 471.556 682.094Q472.65 681.096 473.793 680.154Q474.935 679.212 476.123 678.328Q477.311 677.444 478.541 676.62Q479.771 675.796 481.041 675.034Q482.311 674.272 483.617 673.574Q484.923 672.876 486.262 672.243Q487.601 671.611 488.969 671.046Q490.338 670.481 491.733 669.984Q493.095 669.485 494.48 669.055Q495.865 668.624 497.269 668.263Q498.674 667.901 500.094 667.611Q501.515 667.32 502.949 667.1Q504.382 666.88 505.825 666.732Q507.268 666.584 508.716 666.508Q510.164 666.431 511.614 666.427Q513.065 666.423 514.513 666.491Q515.962 666.559 517.406 666.699Q518.849 666.839 520.284 667.051Q521.719 667.263 523.141 667.545Q524.563 667.828 525.97 668.181Q527.377 668.535 528.764 668.957Q530.151 669.38 531.516 669.871Q532.88 670.363 534.219 670.921Q535.557 671.48 536.866 672.104C554.39 680.374 564.058 694.2 570.538 711.946C573.369 730.022 572.15 746.382 561.112 761.556Q560.228 762.765 559.285 763.929Q558.342 765.093 557.343 766.209Q556.343 767.325 555.29 768.39Q554.237 769.455 553.132 770.467Q552.028 771.479 550.874 772.435Q549.721 773.391 548.522 774.288Q547.323 775.186 546.081 776.023Q544.839 776.861 543.557 777.636Q542.275 778.411 540.956 779.121Q539.638 779.832 538.286 780.476Q536.933 781.121 535.551 781.698Q534.169 782.275 532.76 782.783Q531.35 783.29 529.918 783.728Q528.485 784.166 527.033 784.532Q525.58 784.898 524.111 785.192Q522.643 785.486 521.161 785.707C512.146 787.096 504.106 786.347 495.262 784.423Z"/>
	<path fill="#D89573" d="M495.262 784.423C493.863 773.844 492.748 763.669 495.326 753.147C499.131 737.623 509.485 724.229 523.095 715.97C538.422 706.668 553.775 707.788 570.538 711.946C573.369 730.022 572.15 746.382 561.112 761.556Q560.228 762.765 559.285 763.929Q558.342 765.093 557.343 766.209Q556.343 767.325 555.29 768.39Q554.237 769.455 553.132 770.467Q552.028 771.479 550.874 772.435Q549.721 773.391 548.522 774.288Q547.323 775.186 546.081 776.023Q544.839 776.861 543.557 777.636Q542.275 778.411 540.956 779.121Q539.638 779.832 538.286 780.476Q536.933 781.121 535.551 781.698Q534.169 782.275 532.76 782.783Q531.35 783.29 529.918 783.728Q528.485 784.166 527.033 784.532Q525.58 784.898 524.111 785.192Q522.643 785.486 521.161 785.707C512.146 787.096 504.106 786.347 495.262 784.423Z"/>
	<path fill="#CE6E48" d="M630.638 575.751C640.222 578.072 647.996 585.865 655.405 591.941C663.313 598.427 671.269 604.738 678.767 611.709C698.784 630.317 716.897 652.709 731.127 676.037Q733.479 679.812 735.673 683.681Q737.867 687.55 739.9 691.507Q741.932 695.463 743.799 699.5Q745.667 703.537 747.366 707.647Q749.065 711.758 750.593 715.935Q752.121 720.112 753.475 724.349Q754.83 728.586 756.008 732.875Q757.186 737.164 758.186 741.498C758.948 744.866 759.702 748.181 760.008 751.628C760.479 756.947 759.405 768.778 762.113 772.968C730.874 807.686 680.213 837.162 636.718 853.279C627.713 856.615 618.637 860.399 609.016 861.36C614.109 857.105 619.477 853.227 624.43 848.797C660.745 816.307 682.3 768.168 685.086 719.728Q685.275 716.036 685.321 712.34Q685.368 708.644 685.271 704.948Q685.174 701.253 684.935 697.564Q684.696 693.875 684.314 690.198Q683.932 686.521 683.409 682.862Q682.885 679.203 682.22 675.566Q681.556 671.93 680.751 668.322Q679.947 664.714 679.003 661.14Q678.06 657.565 676.979 654.03Q675.898 650.495 674.682 647.005Q673.465 643.514 672.115 640.073Q670.764 636.632 669.281 633.245Q667.799 629.859 666.187 626.533Q664.574 623.206 662.835 619.944Q661.095 616.683 659.231 613.491Q657.366 610.299 655.38 607.181C648.134 595.951 639.527 585.705 630.638 575.751Z"/>
	<path fill="#D89573" d="M612.04 164.167C618.064 165.649 623.346 168.97 628.989 171.426C635.083 174.078 641.305 176.412 647.39 179.103C686.351 196.33 723.343 218.492 754.792 247.424C759.524 251.778 764.255 256.199 768.647 260.899C773.605 266.204 778.219 271.828 783.635 276.685Q786.573 280.071 789.427 283.528Q792.281 286.986 795.047 290.513Q797.814 294.04 800.493 297.635Q803.172 301.23 805.76 304.89Q808.349 308.55 810.846 312.273Q813.343 315.996 815.747 319.78Q818.151 323.565 820.46 327.407Q822.769 331.249 824.982 335.148Q827.196 339.047 829.311 342.999Q831.427 346.951 833.444 350.955Q835.462 354.958 837.379 359.01Q839.296 363.063 841.112 367.161Q842.929 371.26 844.643 375.402Q846.357 379.545 847.967 383.728Q849.578 387.912 851.084 392.134Q852.591 396.357 853.992 400.615Q855.393 404.874 856.688 409.165Q857.983 413.457 859.172 417.78Q860.36 422.103 861.441 426.453Q862.521 430.804 863.494 435.18Q864.466 439.557 865.33 443.956Q866.194 448.355 866.948 452.774Q867.702 457.193 868.346 461.629Q868.991 466.066 869.525 470.517Q870.059 474.968 870.483 479.431Q870.906 483.894 871.219 488.366Q871.532 492.838 871.734 497.316Q871.935 501.795 872.026 506.277Q872.117 510.759 872.096 515.242Q872.075 519.725 871.943 524.206Q871.812 528.687 871.569 533.164Q871.326 537.64 870.972 542.109Q870.638 546.17 870.213 550.223Q869.788 554.276 869.272 558.318Q868.757 562.36 868.151 566.39Q867.544 570.42 866.848 574.435Q866.152 578.45 865.366 582.448Q864.58 586.447 863.704 590.427Q862.829 594.407 861.864 598.366Q860.9 602.325 859.847 606.262Q858.794 610.198 857.653 614.11Q856.513 618.022 855.284 621.908Q854.056 625.793 852.741 629.65Q851.426 633.507 850.025 637.334Q848.624 641.161 847.138 644.955Q845.651 648.749 844.08 652.509Q842.509 656.269 840.854 659.993Q839.199 663.716 837.461 667.402Q835.723 671.088 833.903 674.734Q832.083 678.38 830.181 681.984Q828.28 685.588 826.298 689.149Q824.317 692.71 822.256 696.225Q820.195 699.741 818.055 703.209Q815.916 706.677 813.7 710.097Q811.483 713.516 809.191 716.885Q806.898 720.255 804.531 723.571Q802.164 726.888 799.723 730.151Q797.281 733.414 794.768 736.621Q792.254 739.829 789.669 742.979Q787.084 746.129 784.43 749.221Q781.775 752.312 779.051 755.344Q776.328 758.375 773.537 761.344Q770.747 764.314 767.89 767.22Q765.034 770.126 762.113 772.968C759.405 768.778 760.479 756.947 760.008 751.628C759.702 748.181 758.948 744.866 758.186 741.498Q757.186 737.164 756.008 732.875Q754.83 728.586 753.475 724.349Q752.121 720.112 750.593 715.935Q749.065 711.758 747.366 707.647Q745.667 703.537 743.799 699.5Q741.932 695.463 739.9 691.507Q737.867 687.55 735.673 683.681Q733.479 679.812 731.127 676.037C716.897 652.709 698.784 630.317 678.767 611.709C671.269 604.738 663.313 598.427 655.405 591.941C647.996 585.865 640.222 578.072 630.638 575.751C610.918 557.761 589.909 543.111 565.934 531.328C547.739 523.619 529.209 517.253 510.869 509.982C565.269 493.394 617.916 465.845 651.061 418.054Q652.379 416.145 653.65 414.205Q654.921 412.264 656.143 410.293Q657.366 408.322 658.54 406.322Q659.715 404.322 660.839 402.293Q661.964 400.264 663.039 398.209Q664.114 396.153 665.137 394.072Q666.161 391.991 667.134 389.885Q668.107 387.779 669.027 385.65Q669.948 383.521 670.816 381.37Q671.685 379.219 672.5 377.048Q673.315 374.876 674.077 372.685Q674.838 370.495 675.546 368.286Q676.254 366.077 676.907 363.851Q677.561 361.625 678.16 359.385Q678.758 357.144 679.302 354.889Q679.845 352.634 680.333 350.366Q680.822 348.099 681.254 345.82Q681.686 343.541 682.063 341.252Q682.439 338.963 682.759 336.666Q683.079 334.368 683.343 332.064Q683.607 329.759 683.814 327.449Q684.021 325.139 684.172 322.824Q684.322 320.51 684.416 318.192Q684.509 315.874 684.546 313.555Q684.583 311.236 684.563 308.916Q684.543 306.597 684.466 304.279Q684.389 301.96 684.255 299.645Q684.121 297.329 683.931 295.017Q683.74 292.706 683.493 290.399Q683.246 288.093 682.942 285.793Q682.639 283.494 682.279 281.202Q681.919 278.911 681.503 276.629C674.472 237.861 650.527 192.003 617.568 169.234C615.472 167.789 613.798 165.988 612.04 164.167Z"/>
	<path fill="#151B74" d="M700.417 457.39C717.89 451.219 734.404 450.555 751.408 458.707Q752.725 459.343 754.009 460.043Q755.293 460.744 756.541 461.507Q757.789 462.27 758.997 463.094Q760.205 463.919 761.371 464.802Q762.537 465.685 763.658 466.625Q764.779 467.565 765.851 468.559Q766.924 469.553 767.946 470.6Q768.968 471.646 769.937 472.742Q770.906 473.838 771.819 474.98Q772.732 476.123 773.588 477.309Q774.443 478.495 775.239 479.723Q776.034 480.95 776.768 482.215Q777.501 483.481 778.171 484.781Q778.841 486.081 779.446 487.413Q780.051 488.745 780.589 490.105Q781.126 491.465 781.596 492.85Q782.095 494.295 782.523 495.764Q782.951 497.232 783.305 498.719Q783.66 500.207 783.941 501.71Q784.222 503.213 784.428 504.728Q784.635 506.244 784.766 507.767Q784.898 509.291 784.954 510.819Q785.01 512.347 784.991 513.876Q784.972 515.405 784.878 516.932Q784.784 518.458 784.614 519.978Q784.444 521.497 784.2 523.007Q783.956 524.517 783.638 526.012Q783.319 527.508 782.928 528.986Q782.536 530.464 782.072 531.921Q781.608 533.379 781.073 534.811Q780.537 536.244 779.932 537.648Q779.327 539.052 778.653 540.425Q777.984 541.769 777.249 543.078Q776.515 544.387 775.716 545.657Q774.917 546.928 774.056 548.158Q773.195 549.388 772.275 550.573Q771.354 551.759 770.375 552.897Q769.397 554.035 768.363 555.124Q767.329 556.212 766.243 557.248Q765.157 558.284 764.02 559.265Q762.884 560.245 761.7 561.168Q760.516 562.091 759.288 562.954Q758.06 563.818 756.791 564.619Q755.521 565.42 754.214 566.157Q752.906 566.895 751.564 567.566Q750.221 568.238 748.847 568.842Q747.473 569.446 746.071 569.981Q744.668 570.516 743.241 570.981C727.946 576.041 711.151 575.459 696.696 568.113C682.046 560.667 671.793 547.874 666.801 532.327C662.786 519.824 663.465 507.017 666.793 494.461C673.936 476.87 684.214 466.836 700.417 457.39Z"/>
	<path fill="#CE6E48" d="M617.568 169.234C618.344 168.661 618.496 168.229 619.505 168.387C623.909 169.074 634.381 177.49 638.481 180.277C646.834 185.957 655.44 191.219 663.53 197.283C683.213 212.036 700.066 231.207 713.329 251.863Q714.48 253.623 715.586 255.411Q716.692 257.199 717.752 259.014Q718.813 260.829 719.827 262.671Q720.842 264.512 721.81 266.379Q722.778 268.245 723.699 270.135Q724.619 272.026 725.492 273.938Q726.365 275.851 727.189 277.785Q728.014 279.719 728.789 281.673Q729.565 283.628 730.291 285.601Q731.017 287.574 731.693 289.565Q732.369 291.555 732.995 293.563Q733.621 295.57 734.196 297.592Q734.772 299.614 735.296 301.65Q735.82 303.687 736.293 305.735Q736.765 307.784 737.186 309.844Q737.607 311.904 737.976 313.974Q738.345 316.043 738.662 318.122Q738.979 320.2 739.243 322.286Q739.508 324.372 739.72 326.464Q739.932 328.555 740.091 330.652Q740.25 332.748 740.356 334.848Q740.463 336.948 740.516 339.05Q740.569 341.151 740.57 343.254Q740.571 345.356 740.518 347.458Q740.466 349.56 740.361 351.66Q740.255 353.76 740.098 355.856Q739.94 357.953 739.729 360.045Q739.518 362.137 739.255 364.223Q738.991 366.308 738.676 368.387Q738.36 370.466 737.992 372.536Q737.624 374.606 737.204 376.666Q736.785 378.726 736.313 380.775Q735.494 384.616 734.499 388.415Q733.503 392.214 732.332 395.962Q731.16 399.711 729.816 403.401Q728.473 407.091 726.959 410.715Q725.445 414.339 723.765 417.889Q722.085 421.438 720.241 424.906Q718.398 428.374 716.396 431.752Q714.394 435.131 712.237 438.413C708.846 443.597 704.939 448.396 701.485 453.523C700.558 454.898 699.946 455.723 700.417 457.39C684.214 466.836 673.936 476.87 666.793 494.461C663.065 493.604 644.504 506.573 639.835 509.159C635.225 511.711 630.215 513.964 625.336 515.958C613.293 520.88 600.47 524.796 587.648 527.043C582.336 527.974 570.515 528.586 566.589 530.907C566.365 531.039 566.153 531.187 565.934 531.328C547.739 523.619 529.209 517.253 510.869 509.982C565.269 493.394 617.916 465.845 651.061 418.054Q652.379 416.145 653.65 414.205Q654.921 412.264 656.143 410.293Q657.366 408.322 658.54 406.322Q659.715 404.322 660.839 402.293Q661.964 400.264 663.039 398.209Q664.114 396.153 665.137 394.072Q666.161 391.991 667.134 389.885Q668.107 387.779 669.027 385.65Q669.948 383.521 670.816 381.37Q671.685 379.219 672.5 377.048Q673.315 374.876 674.077 372.685Q674.838 370.495 675.546 368.286Q676.254 366.077 676.907 363.851Q677.561 361.625 678.16 359.385Q678.758 357.144 679.302 354.889Q679.845 352.634 680.333 350.366Q680.822 348.099 681.254 345.82Q681.686 343.541 682.063 341.252Q682.439 338.963 682.759 336.666Q683.079 334.368 683.343 332.064Q683.607 329.759 683.814 327.449Q684.021 325.139 684.172 322.824Q684.322 320.51 684.416 318.192Q684.509 315.874 684.546 313.555Q684.583 311.236 684.563 308.916Q684.543 306.597 684.466 304.279Q684.389 301.96 684.255 299.645Q684.121 297.329 683.931 295.017Q683.74 292.706 683.493 290.399Q683.246 288.093 682.942 285.793Q682.639 283.494 682.279 281.202Q681.919 278.911 681.503 276.629C674.472 237.861 650.527 192.003 617.568 169.234Z"/>
	<path fill="#E1E1DA" d="M402.989 168.832C425.951 153.205 444.228 141.573 472.031 135.384Q473.788 134.988 475.554 134.628Q477.319 134.269 479.091 133.946Q480.863 133.623 482.642 133.338Q484.421 133.052 486.205 132.803Q487.989 132.554 489.778 132.342Q491.567 132.131 493.36 131.956Q495.153 131.782 496.949 131.644Q498.745 131.507 500.544 131.407Q502.343 131.307 504.143 131.245Q505.943 131.182 507.745 131.157Q509.546 131.132 511.347 131.145Q513.149 131.157 514.95 131.207Q516.75 131.257 518.55 131.344Q520.349 131.431 522.146 131.556Q523.943 131.68 525.737 131.842Q527.532 132.004 529.322 132.203Q531.112 132.402 532.898 132.638Q534.684 132.875 536.465 133.148Q538.245 133.421 540.02 133.732Q541.794 134.042 543.562 134.389Q545.33 134.736 547.09 135.12Q548.85 135.504 550.602 135.924Q552.353 136.344 554.096 136.8Q555.839 137.257 557.572 137.75Q559.304 138.242 561.026 138.771Q562.749 139.299 564.46 139.863Q566.17 140.428 567.869 141.027Q569.568 141.627 571.254 142.262Q572.94 142.896 574.612 143.566Q576.284 144.236 577.942 144.94Q579.6 145.644 581.244 146.383Q582.887 147.121 584.514 147.894C594.118 152.532 603.033 158.483 612.04 164.167C613.798 165.988 615.472 167.789 617.568 169.234C650.527 192.003 674.472 237.861 681.503 276.629Q681.919 278.911 682.279 281.202Q682.639 283.494 682.942 285.793Q683.246 288.093 683.493 290.399Q683.74 292.706 683.931 295.017Q684.121 297.329 684.255 299.645Q684.389 301.96 684.466 304.279Q684.543 306.597 684.563 308.916Q684.583 311.236 684.546 313.555Q684.509 315.874 684.416 318.192Q684.322 320.51 684.172 322.824Q684.021 325.139 683.814 327.449Q683.607 329.759 683.343 332.064Q683.079 334.368 682.759 336.666Q682.439 338.963 682.063 341.252Q681.686 343.541 681.254 345.82Q680.822 348.099 680.333 350.366Q679.845 352.634 679.302 354.889Q678.758 357.144 678.16 359.385Q677.561 361.625 676.907 363.851Q676.254 366.077 675.546 368.286Q674.838 370.495 674.077 372.685Q673.315 374.876 672.5 377.048Q671.685 379.219 670.816 381.37Q669.948 383.521 669.027 385.65Q668.107 387.779 667.134 389.885Q666.161 391.991 665.137 394.072Q664.114 396.153 663.039 398.209Q661.964 400.264 660.839 402.293Q659.715 404.322 658.54 406.322Q657.366 408.322 656.143 410.293Q654.921 412.264 653.65 414.205Q652.379 416.145 651.061 418.054C617.916 465.845 565.269 493.394 510.869 509.982L510.382 510.129C494.961 504.183 479.218 498.61 464.31 491.46C453.408 486.232 443.178 479.949 432.626 474.078C417.648 463.503 403.674 453.03 391.083 439.573C356.011 402.087 335.178 352.634 337.037 300.911Q337.097 298.972 337.2 297.035Q337.303 295.098 337.448 293.164Q337.593 291.23 337.781 289.299Q337.969 287.369 338.199 285.443Q338.429 283.517 338.701 281.596Q338.973 279.676 339.288 277.762Q339.602 275.848 339.959 273.941Q340.315 272.034 340.713 270.136Q341.112 268.237 341.552 266.348Q341.991 264.459 342.473 262.58Q342.954 260.701 343.476 258.833Q343.999 256.965 344.562 255.109Q345.125 253.253 345.729 251.409Q346.333 249.566 346.977 247.737Q347.622 245.907 348.306 244.092Q348.99 242.277 349.714 240.478Q350.438 238.678 351.202 236.895Q351.965 235.112 352.767 233.346Q353.57 231.58 354.411 229.832Q355.252 228.084 356.131 226.355Q357.01 224.626 357.927 222.917Q358.844 221.207 359.798 219.519Q360.752 217.83 361.743 216.162Q362.735 214.495 363.762 212.85Q364.79 211.205 365.853 209.582Q366.916 207.96 368.015 206.362Q369.114 204.763 370.247 203.189Q371.381 201.615 372.549 200.067Q373.717 198.518 374.919 196.995Q376.12 195.473 377.355 193.977Q378.59 192.481 379.857 191.013Q381.125 189.544 382.424 188.104C388.838 181.041 396.058 175.293 402.989 168.832Z"/>
	<path fill="#3E75CF" d="M507.138 359.734Q504.777 359.555 502.437 359.189Q500.097 358.822 497.794 358.27Q495.492 357.718 493.24 356.984Q490.989 356.25 488.803 355.338Q487.397 354.755 486.022 354.104Q484.646 353.453 483.304 352.734Q481.963 352.015 480.658 351.231Q479.354 350.447 478.09 349.599Q476.826 348.752 475.605 347.842Q474.385 346.933 473.21 345.965Q472.036 344.996 470.911 343.971Q469.787 342.946 468.714 341.866Q467.641 340.787 466.623 339.655Q465.605 338.524 464.644 337.344Q463.683 336.163 462.782 334.937Q461.881 333.71 461.041 332.441Q460.202 331.171 459.426 329.862Q458.65 328.553 457.94 327.206Q457.23 325.86 456.587 324.48Q455.945 323.101 455.371 321.691Q454.78 320.259 454.26 318.799Q453.741 317.34 453.293 315.857Q452.846 314.373 452.473 312.87Q452.099 311.366 451.8 309.846Q451.501 308.326 451.277 306.793Q451.053 305.26 450.905 303.718Q450.757 302.176 450.685 300.628Q450.613 299.08 450.617 297.531Q450.621 295.982 450.702 294.435Q450.783 292.887 450.939 291.346Q451.096 289.805 451.329 288.273Q451.561 286.741 451.869 285.223Q452.176 283.704 452.558 282.203Q452.94 280.702 453.396 279.221Q453.851 277.74 454.379 276.283Q454.907 274.827 455.506 273.398Q456.089 272.016 456.74 270.664Q457.392 269.313 458.109 267.995Q458.827 266.678 459.609 265.398Q460.392 264.118 461.237 262.878Q462.082 261.639 462.988 260.443Q463.894 259.247 464.858 258.098Q465.822 256.948 466.843 255.849Q467.863 254.749 468.937 253.701Q470.01 252.653 471.135 251.66Q472.26 250.668 473.432 249.732Q474.605 248.796 475.823 247.92Q477.041 247.044 478.301 246.229Q479.56 245.415 480.859 244.664Q482.158 243.914 483.493 243.229Q484.828 242.543 486.195 241.926Q487.562 241.308 488.958 240.759Q490.414 240.175 491.897 239.663Q493.38 239.151 494.887 238.712Q496.393 238.274 497.919 237.91Q499.445 237.546 500.987 237.257Q502.529 236.968 504.084 236.755Q505.638 236.543 507.201 236.407Q508.764 236.27 510.332 236.211Q511.9 236.152 513.469 236.17Q515.038 236.188 516.604 236.282Q518.17 236.377 519.729 236.549Q521.289 236.72 522.838 236.968Q524.387 237.216 525.922 237.54Q527.458 237.863 528.975 238.262Q530.493 238.661 531.989 239.133Q533.485 239.606 534.956 240.151Q536.427 240.697 537.869 241.314C555.174 248.906 565.225 263.404 571.914 280.469C576.408 296.998 574.941 313.434 566.43 328.498Q565.671 329.83 564.848 331.124Q564.024 332.417 563.139 333.669Q562.253 334.921 561.308 336.128Q560.362 337.335 559.359 338.494Q558.355 339.653 557.296 340.762Q556.237 341.871 555.125 342.927Q554.013 343.982 552.851 344.983Q551.689 345.983 550.479 346.925Q549.269 347.867 548.015 348.749Q546.761 349.631 545.465 350.45Q544.169 351.27 542.834 352.025Q541.5 352.78 540.13 353.469Q538.761 354.158 537.359 354.779Q535.957 355.401 534.526 355.953Q533.096 356.505 531.64 356.986Q530.185 357.467 528.707 357.877C523.554 359.261 512.256 361.442 507.138 359.734Z"/>
	<path fill="#4381DF" d="M507.138 359.734L507.746 359.455C508.481 358.381 508.113 357.841 507.52 356.702C501.103 344.371 495.847 336.458 497.787 322.009C499.611 308.431 506.585 295.516 517.558 287.202C528.741 278.73 543.822 275.411 557.631 277.49C562.299 278.193 566.777 279.839 571.441 280.417C571.598 280.436 571.756 280.452 571.914 280.469C576.408 296.998 574.941 313.434 566.43 328.498Q565.671 329.83 564.848 331.124Q564.024 332.417 563.139 333.669Q562.253 334.921 561.308 336.128Q560.362 337.335 559.359 338.494Q558.355 339.653 557.296 340.762Q556.237 341.871 555.125 342.927Q554.013 343.982 552.851 344.983Q551.689 345.983 550.479 346.925Q549.269 347.867 548.015 348.749Q546.761 349.631 545.465 350.45Q544.169 351.27 542.834 352.025Q541.5 352.78 540.13 353.469Q538.761 354.158 537.359 354.779Q535.957 355.401 534.526 355.953Q533.096 356.505 531.64 356.986Q530.185 357.467 528.707 357.877C523.554 359.261 512.256 361.442 507.138 359.734Z"/>
	<path fill="#C73704" d="M274.522 785.653Q265.949 777.6 257.715 769.201C185.945 694.515 149.717 604.019 151.885 500.423C152.324 479.405 155.385 458.018 159.924 437.515Q160.666 434.161 161.47 430.822Q162.274 427.482 163.14 424.158Q164.006 420.834 164.933 417.527Q165.861 414.22 166.851 410.931Q167.84 407.641 168.89 404.371Q169.941 401.101 171.052 397.85Q172.163 394.6 173.335 391.371Q174.506 388.142 175.738 384.936Q176.969 381.729 178.26 378.546Q179.551 375.363 180.901 372.205Q182.252 369.046 183.66 365.914Q185.069 362.781 186.536 359.675Q188.003 356.569 189.527 353.491Q191.052 350.413 192.633 347.364Q194.215 344.315 195.853 341.296Q197.491 338.276 199.185 335.288Q200.879 332.3 202.629 329.344Q204.378 326.388 206.183 323.466Q207.987 320.543 209.845 317.654Q211.704 314.765 213.616 311.911Q215.527 309.058 217.492 306.24Q219.457 303.423 221.474 300.643Q223.491 297.862 225.559 295.12Q227.628 292.377 229.747 289.674Q231.866 286.971 234.035 284.307Q236.204 281.644 238.422 279.022Q240.641 276.399 242.908 273.819Q245.174 271.238 247.489 268.7Q249.804 266.162 252.165 263.667Q254.526 261.173 256.934 258.723Q259.341 256.273 261.794 253.868Q264.247 251.464 266.744 249.105C299.694 217.642 340.762 191.744 383.143 175.115C388.792 172.898 396.888 168.687 402.989 168.832C396.058 175.293 388.838 181.041 382.424 188.104Q381.125 189.544 379.857 191.013Q378.59 192.481 377.355 193.977Q376.12 195.473 374.919 196.995Q373.717 198.518 372.549 200.067Q371.381 201.615 370.247 203.189Q369.114 204.763 368.015 206.362Q366.916 207.96 365.853 209.582Q364.79 211.205 363.762 212.85Q362.735 214.495 361.743 216.162Q360.752 217.83 359.798 219.519Q358.844 221.207 357.927 222.917Q357.01 224.626 356.131 226.355Q355.252 228.084 354.411 229.832Q353.57 231.58 352.767 233.346Q351.965 235.112 351.202 236.895Q350.438 238.678 349.714 240.478Q348.99 242.277 348.306 244.092Q347.622 245.907 346.977 247.737Q346.333 249.566 345.729 251.409Q345.125 253.253 344.562 255.109Q343.999 256.965 343.476 258.833Q342.954 260.701 342.473 262.58Q341.991 264.459 341.552 266.348Q341.112 268.237 340.713 270.136Q340.315 272.034 339.959 273.941Q339.602 275.848 339.288 277.762Q338.973 279.676 338.701 281.596Q338.429 283.517 338.199 285.443Q337.969 287.369 337.781 289.299Q337.593 291.23 337.448 293.164Q337.303 295.098 337.2 297.035Q337.097 298.972 337.037 300.911C335.178 352.634 356.011 402.087 391.083 439.573C403.674 453.03 417.648 463.503 432.626 474.078C443.178 479.949 453.408 486.232 464.31 491.46C479.218 498.61 494.961 504.183 510.382 510.129C501.166 515.032 488.504 518.686 478.539 522.907C459.693 529.921 440.995 538.309 424.461 549.895C408.38 561.644 393.069 573.982 380.316 589.398C375.034 595.782 370.603 602.814 365.427 609.281C357.748 621.821 350.938 635.204 346.1 649.111C335.166 680.538 333.04 717.891 340.746 750.244C349.345 786.351 368.296 820.734 395.824 845.839C402.81 852.21 410.529 857.725 418.196 863.238C408.687 861.682 399.941 858.612 390.927 855.334Q385.043 853.167 379.238 850.795Q373.434 848.422 367.717 845.847Q362 843.271 356.377 840.496Q350.754 837.72 345.232 834.748Q339.711 831.776 334.298 828.611Q328.884 825.447 323.586 822.093Q318.288 818.739 313.111 815.201Q307.934 811.663 302.885 807.944C293.159 800.928 283.944 792.353 274.522 785.653Z"/>
	<path fill="#151B74" d="M272.943 566.63C266.928 562.914 260.699 558.244 255.813 553.135C245.709 542.569 240.198 526.952 240.57 512.422Q240.607 510.924 240.719 509.431Q240.83 507.937 241.015 506.45Q241.2 504.964 241.459 503.488Q241.718 502.013 242.049 500.552Q242.381 499.091 242.784 497.648Q243.188 496.205 243.662 494.785Q244.136 493.364 244.681 491.968Q245.225 490.572 245.838 489.205Q246.45 487.838 247.13 486.503Q247.81 485.168 248.555 483.869Q249.3 482.569 250.108 481.308Q250.917 480.047 251.787 478.828Q252.657 477.608 253.586 476.433Q254.516 475.258 255.502 474.131Q256.489 473.003 257.53 471.926Q258.571 470.849 259.664 469.825Q260.756 468.797 261.897 467.825Q263.039 466.853 264.227 465.939Q265.415 465.024 266.647 464.17Q267.88 463.316 269.153 462.524Q270.426 461.731 271.736 461.003Q273.047 460.275 274.392 459.613Q275.737 458.951 277.114 458.357Q278.49 457.762 279.895 457.237Q281.299 456.711 282.727 456.256Q284.156 455.8 285.605 455.417Q287.055 455.033 288.521 454.721Q289.988 454.41 291.468 454.172Q292.949 453.933 294.439 453.769Q295.929 453.604 297.426 453.514Q298.922 453.423 300.422 453.407Q301.921 453.391 303.419 453.449C321.642 454.152 336.166 462.722 348.303 475.765C358.453 491.757 363.134 508.836 358.89 527.662C355.514 542.634 345.262 555.958 332.285 563.976C319.202 572.059 302.765 575.057 287.746 571.487C282.719 570.292 277.789 568.408 272.943 566.63Z"/>
</svg>
