<?xml version="1.0" encoding="utf-8" ?>
<svg xmlns="http://www.w3.org/2000/svg" xmlns:xlink="http://www.w3.org/1999/xlink" width="1024" height="1024">
	<path fill="#3FE3B7" d="M743.868 197.37C745.713 197.358 747.376 197.749 748.694 199.102C751.402 201.881 750.547 207.713 750.484 211.232C754.323 211.042 759.28 210.98 762.423 213.498C763.541 214.394 763.883 215.31 764.061 216.708C763.804 217.73 763.613 218.306 762.884 219.108C760.016 222.262 754.296 221.575 750.514 221.521C750.635 225.146 751.283 229.806 750.063 233.226C749.309 235.338 747.987 236.243 746.069 237.246C744.736 236.808 743.339 236.388 742.288 235.402C739.148 232.454 740.342 225.402 740.452 221.541C736.213 221.703 730.889 222.499 727.433 219.402C726.476 218.545 725.818 217.421 725.866 216.098C725.914 214.783 726.638 213.728 727.64 212.939C731.194 210.143 736.215 211.161 740.351 211.525C740.116 209.297 739.838 206.909 739.894 204.671C739.98 201.286 741.527 199.633 743.868 197.37Z"/>
	<path fill="#3FE3B7" d="M278.469 194.279C278.605 194.291 278.743 194.289 278.877 194.316C281.88 194.918 284.512 198.295 286.178 200.631C285.665 204.203 285.426 207.843 285.08 211.436C287.792 210.905 291.009 210.076 293.762 210.442C297.837 210.984 299.847 213.76 302.243 216.739C300.55 219.672 298.758 221.579 295.96 223.501C292.438 223.566 289.006 223.29 285.502 222.969C285.515 226.712 285.799 230.398 286.123 234.126C284.302 236.029 282.268 237.674 280.252 239.364C279.969 239.684 279.399 239.886 279.017 240.083C277.112 239.663 275.728 238.092 274.609 236.577C271.121 231.855 271.971 229.044 272.692 223.547L261.512 223.573C259.548 221.787 257.847 219.62 256.097 217.623C257.816 215.063 259.603 212.775 261.678 210.493C265.456 210.55 269.259 210.904 273.002 211.405C272.96 207.808 272.682 204.218 272.448 200.63C274.294 198.308 276.328 196.321 278.469 194.279Z"/>
	<path fill="#92C180" d="M163.152 329.417C173.697 330.546 183.952 329.169 194.432 329.621L156.721 368.476C149.847 368.144 142.922 368.315 136.04 368.34C144.703 355.145 154.049 342.316 163.152 329.417Z"/>
	<path fill="#92C180" d="M860.022 329.295Q873.776 348.697 887.114 368.388L865.427 368.424C857.968 363.352 835.925 338.277 829.597 330.035C838.835 330.109 851.217 331.438 860.022 329.295Z"/>
	<defs>
		<linearGradient id="gradient_0" gradientUnits="userSpaceOnUse" x1="661.52948" y1="312.07196" x2="652.54285" y2="255.07208">
			<stop offset="0" stop-color="#093C40"/>
			<stop offset="1" stop-color="#4FAC8D"/>
		</linearGradient>
	</defs>
	<path fill="url(#gradient_0)" d="M636.566 237.041C644.98 244.355 652.694 252.892 660.579 260.787C670.93 271.151 681.633 281.296 691.707 291.921Q681.752 302.383 671.602 312.657L620.063 261.892C630.926 259.029 642.571 260.239 652.987 255.885C648.052 249.52 639.877 244.42 636.566 237.041Z"/>
	<path fill="#92C180" d="M777.339 242.389C777.426 242.475 777.533 242.546 777.601 242.648C779.166 244.987 777.999 279.429 777.943 285.046C770.686 293.81 761.484 301.559 753.347 309.562C738.216 324.443 723.289 339.501 707.965 354.19C704.294 351.317 701.016 347.842 697.672 344.597C693.842 340.72 690.024 336.868 686.455 332.745Q719.935 298.52 754.334 265.218C762.04 257.713 769.299 249.51 777.339 242.389Z"/>
	<path fill="#92C180" d="M245.553 242.175C250.839 245.147 267.796 263.065 273.277 268.517L338.221 333.435C334.677 337.175 331.023 340.82 327.42 344.504Q321.887 349.936 316.153 355.157L245.531 283.975Q245.417 263.075 245.553 242.175Z"/>
	<path fill="#3FE3B7" d="M423.221 113.03C432.748 103.249 443.666 94.5617 453.992 85.6419L502.036 43.8945C503.216 61.262 502.227 79.1067 502.137 96.535C502.019 119.346 502.528 142.249 502.047 165.046C496.36 170.519 490.728 176.553 484.567 181.47C482.116 181.044 479.769 186.11 476.245 187.196C475.007 187.578 474.514 187.52 473.429 186.87C472.432 183.906 474.04 180.605 473.468 177.572C472.253 171.12 468.391 165.2 467.16 158.88C469.218 157.251 472.05 155.389 472.659 152.7C472.031 139.521 472.464 126.153 472.484 112.952L423.221 113.03Z"/>
	<defs>
		<linearGradient id="gradient_1" gradientUnits="userSpaceOnUse" x1="326.8082" y1="250.08189" x2="482.76163" y2="220.40303">
			<stop offset="0" stop-color="#4FAC8D"/>
			<stop offset="1" stop-color="#3FE3B7"/>
		</linearGradient>
	</defs>
	<path fill="url(#gradient_1)" d="M333.356 290.65C366.209 255.383 401.761 222.436 436.037 188.547C441.419 183.226 468.797 154.656 472.659 152.7C472.05 155.389 469.218 157.251 467.16 158.88C468.391 165.2 472.253 171.12 473.468 177.572C474.04 180.605 472.432 183.906 473.429 186.87C474.514 187.52 475.007 187.578 476.245 187.196C479.769 186.11 482.116 181.044 484.567 181.47C481.653 185.638 476.723 189.35 473.041 192.958L444.919 220.487L353.294 311.181C346.268 304.821 339.583 297.79 333.356 290.65Z"/>
	<path fill="#FA762E" d="M703.54 679.375C708.253 682.271 722.32 697.567 727.505 702.664C743.811 718.692 761.05 734.061 776.585 750.833C777.157 761.422 777.003 772.107 776.982 782.711C762.567 796.138 748.98 810.443 734.944 824.263C728.97 830.145 722.703 837.289 715.822 842.057C704.024 842.431 692.178 842.179 680.375 842.14L673.56 842.099C681.079 832.689 690.342 824.028 698.932 815.595C715.827 799.009 733.274 782.997 750.045 766.283C742.362 757.893 733.739 750.174 725.55 742.263Q703.838 721.371 682.417 700.182Q693.182 689.985 703.54 679.375Z"/>
	<path fill="#FA762E" d="M315.476 680.891C323.284 686.482 330.956 695.758 337.634 702.721C331.053 710.883 322.151 717.992 314.587 725.301Q293.765 745.738 273.439 766.67C288.91 780.529 303.422 795.738 318.322 810.221C323.36 815.117 347.819 837.267 350.094 841.586C349.184 842.562 348.405 842.368 347.125 842.519L305.15 842.472C297.882 836.705 291.345 829.098 284.676 822.6C271.899 810.149 258.601 797.988 246.613 784.776C246.328 773.019 246.535 761.203 246.508 749.44L315.476 680.891Z"/>
	<path fill="#FA762E" d="M521.462 760.751C541.386 780.838 560.167 802.029 581.279 820.928L560.144 840.802Q555.615 845.133 550.986 849.358Q551.601 882.899 551.179 916.443L595.984 916.456C588.125 923.798 579.487 930.457 571.44 937.631C555.028 952.262 538.766 967.504 521.466 981.079L521.454 803.156L521.462 760.751Z"/>
	<defs>
		<linearGradient id="gradient_2" gradientUnits="userSpaceOnUse" x1="635.93719" y1="262.07788" x2="657.33942" y2="137.91989">
			<stop offset="0" stop-color="#4FAC8D"/>
			<stop offset="1" stop-color="#3FE3B7"/>
		</linearGradient>
	</defs>
	<path fill="url(#gradient_2)" d="M565.202 133.497Q602.284 133.257 639.365 133.519Q639.449 146.328 639.223 159.135L630.734 159.002Q650.267 179.055 670.852 198.026L671.008 146.931C681.032 156.688 690.883 166.63 700.789 176.506C701.528 193.823 700.99 211.386 701.026 228.729Q704.97 232.596 709.056 236.313L729.142 255.838C722.723 263.191 715.173 269.575 708.347 276.551C689.579 256.017 668.94 236.862 649.152 217.3L565.202 133.497Z"/>
	<path fill="#FA762E" d="M502.421 761.324C502.666 776.078 502.466 790.86 502.45 805.616L502.552 913.296C502.646 935.872 503.311 958.559 502.595 981.125C487.942 970.44 474.251 957.825 460.461 946.049C448.914 936.188 436.684 926.666 425.588 916.347L472.46 916.486C472.445 894.263 472.12 871.993 472.428 849.776L463.422 840.844Q452.976 830.819 442.639 820.683C462.877 801.181 481.688 780.31 502.421 761.324Z"/>
	<defs>
		<linearGradient id="gradient_3" gradientUnits="userSpaceOnUse" x1="393.91379" y1="247.14865" x2="358.97095" y2="142.50615">
			<stop offset="0" stop-color="#4FAC8D"/>
			<stop offset="1" stop-color="#3FE3B7"/>
		</linearGradient>
	</defs>
	<path fill="url(#gradient_3)" d="M447.062 133.741C451.058 133.648 455.064 133.774 459.061 133.843C443.928 150.418 426.665 165.474 410.629 181.215Q363.279 228.531 315.406 275.316Q305.354 265.732 295.607 255.839Q302.71 247.652 310.323 239.936L321.657 228.585C320.618 210.854 321.461 192.644 321.485 174.864C331.496 163.129 343.051 152.573 354.491 142.264L354.397 196.943C366.636 184.104 379.799 171.782 391.529 158.52L382.137 158.508Q382.306 146.172 382.349 133.835Q414.706 134.037 447.062 133.741Z"/>
	<path fill="#3FE3B7" d="M521.471 43.5075C533.273 52.1916 546.597 65.3607 557.805 75.2486C572.04 87.8072 586.979 99.6891 600.524 112.998L550.416 112.885L550.512 151.559C556.485 158.259 563.588 164.438 569.972 170.794Q589.137 190.122 608.71 209.038C618.01 217.92 628.463 227.032 636.566 237.041C639.877 244.42 648.052 249.52 652.987 255.885C642.571 260.239 630.926 259.029 620.063 261.892C586.942 229.961 554.644 197.255 521.758 165.092C521.119 150.891 521.559 136.479 521.534 122.256L521.471 43.5075Z"/>
	<path fill="#FA762E" d="M657.601 716.123C664.1 721.685 670.018 728.163 676.059 734.226C688.837 746.527 702.079 758.62 714.249 771.515C682.783 802.573 651.791 834.119 619.423 864.244Q637.223 864.508 655.024 864.447C662.117 864.459 669.642 864.953 676.669 864.109C665.452 874.397 654.418 885.61 642.528 895.077C618.353 895.634 594.134 894.796 569.948 895.116C569.925 888.282 569.816 881.432 569.952 874.599C586.858 856.722 604.851 839.812 622.269 822.43C638.422 806.31 654.028 789.697 670.478 773.867L653.445 756.702C647.619 750.762 641.721 744.818 635.541 739.246Q646.725 727.832 657.601 716.123Z"/>
	<path fill="#FA762E" d="M341.873 742.048L367.797 716.04Q380.115 727.944 391.774 740.493L366.269 766.066Q361.085 771.398 355.721 776.55C368.184 786.137 378.832 799.01 390.001 810.1Q422.449 842.359 455.58 873.915C455.643 880.898 455.553 887.889 455.536 894.872C431.162 895.105 405.611 896.403 381.337 894.76C377.032 891.227 372.997 887.25 368.818 883.552C361.595 877.16 354.242 870.882 347.283 864.201L405.285 864.13C394.255 853.383 382.72 843.101 371.585 832.451Q340.732 802.939 310.744 772.55L341.873 742.048Z"/>
	<path fill="#FED97C" d="M163.152 329.417C185.667 296.519 207.808 263.127 231.27 230.902C232.45 251.119 231.933 271.514 231.712 291.755C242.415 301.659 252.163 312.575 262.475 322.887C276.704 337.118 291.476 350.963 305.347 365.531Q295.615 376.075 285.017 385.748C271.52 373.782 259.645 360.122 246.289 348.003C222.561 373.306 197.567 397.517 173.575 422.597C167.776 421.857 140.943 420.872 136.462 422.891C123.636 423.758 110.323 423.08 97.4492 423.028Q106.476 409.053 116.389 395.692C131.964 395.126 147.633 395.61 163.226 395.47L228.414 329.853C222.906 323.74 216.701 318.054 210.87 312.233C205.997 318.538 200.123 324.068 194.432 329.621C183.952 329.169 173.697 330.546 163.152 329.417Z"/>
	<path fill="#92C180" d="M149.253 478.99C156.503 472.412 163.136 465.052 170.142 458.202Q199.367 429.743 228.05 400.739C236.162 392.545 243.981 383.714 252.465 375.937Q263.293 385.479 273.237 395.939Q238.259 431.866 202.425 466.94L178.012 491.317C173.044 496.291 167.833 501.184 163.252 506.514L39.8903 506.643C45.9974 497.762 52.3149 489.025 58.3352 480.084C64.3458 471.158 70.0889 461.899 76.8318 453.501L107.246 453.485C111.097 449.852 135.959 425.516 136.462 422.891C140.943 420.872 167.776 421.857 173.575 422.597L141.362 455.357C133.647 463.051 125.317 470.546 118.258 478.836C128.582 478.906 138.933 478.787 149.253 478.99Z"/>
	<path fill="#FED97C" d="M792.5 290.779C792.187 271.041 792.454 251.243 792.441 231.5C801.164 240.532 808.856 253.007 815.969 263.386Q838.184 296.214 860.022 329.295C851.217 331.438 838.835 330.109 829.597 330.035C824.538 324.431 819.333 318.905 814.456 313.143C808.389 319.369 802.375 326.063 795.698 331.629C815.419 353.799 837.54 373.645 857.609 395.473C873.963 395.477 890.355 395.236 906.704 395.507C913.501 403.92 919.801 413.266 925.322 422.567C912.432 422.568 899.489 422.782 886.605 422.398C882.457 420.702 856.014 422.421 849.261 422.523C824.876 398.734 801.678 373.566 777.731 349.311C766.075 362.638 752.873 376.08 739.394 387.559C731.897 380.65 724.915 372.892 717.091 366.386C725.441 356.367 735.03 347.719 744.257 338.549Q768.126 314.409 792.5 290.779Z"/>
	<defs>
		<linearGradient id="gradient_4" gradientUnits="userSpaceOnUse" x1="899.41571" y1="413.40652" x2="836.21021" y2="482.53409">
			<stop offset="0" stop-color="#92C180"/>
			<stop offset="1" stop-color="#4FAC8D"/>
		</linearGradient>
	</defs>
	<path fill="url(#gradient_4)" d="M771.261 375.037C781.215 382.781 793.836 396.761 803.055 405.931C827.467 430.214 851.463 455.078 876.242 478.97Q890.151 478.785 904.061 478.845C899.299 473.314 894.037 468.121 889.003 462.835Q869.469 442.346 849.261 422.523C856.014 422.421 882.457 420.702 886.605 422.398C888.629 426.951 912.353 450.444 917.436 455.66L917.928 455.586L918.749 455.473C927.792 454.146 937.701 454.913 946.863 454.99C951.79 461.734 956.339 468.842 961.151 475.681C968.271 485.803 975.691 495.812 981.96 506.495Q921.788 506.316 861.62 507.019C855.749 502.272 850.365 496.341 844.948 491.063Q826.347 472.957 808.112 454.482L775.633 422.107C766.996 413.626 758.129 405.353 750.057 396.321Q760.733 385.753 771.261 375.037Z"/>
	<path fill="#92C180" d="M860.377 586.648C860.682 587.316 860.927 588.002 861.216 588.668C862.603 591.869 867.723 595.963 870.343 598.559C875.931 598.604 887.471 595.012 890.9 596.099C890.288 596.928 889.324 597.898 889.128 598.907C901.729 598.899 914.375 598.68 926.97 598.966C918.919 609.582 912.163 621.632 903.346 631.6L849.677 631.498C831.79 652.796 813.978 674.498 794.276 694.163L811.635 711.919C825.579 694.258 839.067 675.909 854.382 659.404L883.42 659.336L828.172 740.446C816.99 756.737 806.023 773.424 794.026 789.116C793.175 772.352 792.788 753.463 793.714 736.73C775.637 717.262 756.121 698.831 737.302 680.063C743.328 672.521 751.842 667.129 757.387 659.203Q765.35 667.033 773.419 674.755Q811.713 638.036 848.164 599.486C852.046 595.046 856.271 590.881 860.377 586.648Z"/>
	<path fill="#4FAC8D" d="M860.377 586.648C860.682 587.316 860.927 588.002 861.216 588.668C862.603 591.869 867.723 595.963 870.343 598.559C875.931 598.604 887.471 595.012 890.9 596.099C890.288 596.928 889.324 597.898 889.128 598.907C875.533 599.101 861.73 599.77 848.164 599.486C852.046 595.046 856.271 590.881 860.377 586.648Z"/>
	<path fill="#92C180" d="M96.7482 598.629Q113.243 598.422 129.738 598.616C143.819 600.372 158.779 598.408 173.124 599.687C181.683 607.974 189.792 616.708 198.16 625.186L248.108 675.167C254.701 669.493 261.152 663.395 266.649 656.634C274.321 663.207 283.103 670.089 288.883 678.44Q267.918 699.119 247.303 720.146C242.144 725.416 236.263 730.412 231.551 736.043Q231.795 762.723 231.555 789.404C218.138 773.942 207.162 755.998 195.328 739.315Q177.846 714.9 160.908 690.104C153.742 679.692 146.31 669.342 139.887 658.452Q155.563 658.347 171.239 658.448C175.821 662.95 179.867 668.56 183.898 673.558Q198.524 691.967 212.69 710.732Q220.938 702.489 229.286 694.346C209.794 672.767 188.2 652.977 168.462 631.58C152.161 631.338 135.831 631.519 119.527 631.502C111.329 621.179 104.19 609.536 96.7482 598.629Z"/>
	<path fill="#093C40" d="M932.317 519.089C947.909 518.947 963.838 518.17 979.386 518.952C975.348 526.02 970.627 532.722 966.135 539.508L945.712 570.507Q930.718 570.668 915.725 570.442C909.943 576.379 896.555 592.073 890.9 596.099C887.471 595.012 875.931 598.604 870.343 598.559C867.723 595.963 862.603 591.869 861.216 588.668C860.927 588.002 860.682 587.316 860.377 586.648C856.271 590.881 852.046 595.046 848.164 599.486Q811.713 638.036 773.419 674.755Q765.35 667.033 757.387 659.203C751.842 667.129 743.328 672.521 737.302 680.063L720.853 664.236C719.123 662.578 717.463 660.839 715.78 659.133C728.741 644.277 743.65 630.669 757.6 616.705Q806.268 568.735 854.141 519.97C855.029 519.497 855.739 519.222 856.733 519.106C864.865 518.153 873.908 518.936 882.107 518.975L932.317 519.089ZM861.16 547.579L821.943 586.805C817.6 591.113 810.215 599.429 805.518 602.632Q788.84 619.921 771.857 636.91C765.907 642.819 759.522 649.894 752.807 654.876L757.387 659.203Q765.35 667.033 773.419 674.755Q811.713 638.036 848.164 599.486C852.046 595.046 856.271 590.881 860.377 586.648C872.348 573.162 887.237 561.803 898.451 547.74Q879.805 547.763 861.16 547.579Z"/>
	<path fill="#4FAC8D" d="M772.361 617.738C780.143 613.596 787.667 609.02 795.685 605.326C798.019 604.25 803.078 601.74 805.518 602.632Q788.84 619.921 771.857 636.91C765.907 642.819 759.522 649.894 752.807 654.876L757.387 659.203C751.842 667.129 743.328 672.521 737.302 680.063L720.853 664.236C734.175 653.847 745.951 641.79 758.013 630.014C764.676 623.509 771.28 616.755 778.748 611.163C782.463 608.381 786.559 606.123 790.581 603.822C787.436 607.733 777.28 613.141 772.361 617.738Z"/>
	<defs>
		<linearGradient id="gradient_5" gradientUnits="userSpaceOnUse" x1="191.20665" y1="527.12207" x2="166.43867" y2="627.07745">
			<stop offset="0" stop-color="#093C40"/>
			<stop offset="1" stop-color="#4FAC8D"/>
		</linearGradient>
	</defs>
	<path fill="url(#gradient_5)" d="M42.6722 520.043L122.809 519.944C137.571 519.944 152.688 519.293 167.412 520.085C173.673 524.949 179.205 531.291 184.836 536.879Q197.993 549.837 211.328 562.613Q244.743 594.697 277.373 627.579C287.758 637.851 299.054 647.526 308.744 658.454L304.16 663.051C299.441 668.524 294.107 673.454 288.883 678.44C283.103 670.089 274.321 663.207 266.649 656.634C261.152 663.395 254.701 669.493 248.108 675.167L198.16 625.186C189.792 616.708 181.683 607.974 173.124 599.687C158.779 598.408 143.819 600.372 129.738 598.616Q132.013 598.599 134.284 598.465C131.984 593.761 117.01 579.355 112.531 574.107Q109.846 571.303 107.246 568.421C97.1951 568.447 87.0743 568.732 77.0319 568.427C64.8198 553.089 53.1763 536.598 42.6722 520.043ZM118.271 545.037C125.767 553.138 133.975 560.578 141.627 568.536C141.688 569.363 142.081 570.753 141.443 571.341C136.448 575.941 118.206 571.424 112.531 574.107C117.01 579.355 131.984 593.761 134.284 598.465Q132.013 598.599 129.738 598.616C143.819 600.372 158.779 598.408 173.124 599.687C181.683 607.974 189.792 616.708 198.16 625.186L248.108 675.167C254.701 669.493 261.152 663.395 266.649 656.634C265.988 656.128 265.49 655.557 264.929 654.945C253.813 646.433 243.122 633.643 232.961 623.743Q192.679 584.912 153.539 544.932C141.813 544.397 130.001 544.729 118.271 545.037Z"/>
	<path fill="#4FAC8D" d="M264.929 654.945L264.426 654.066C263.842 653.066 263.168 652.352 262.414 651.494C261.918 650.93 262.089 651.127 261.836 650.26C262.556 650.899 262.749 651.367 263.735 651.417C272.271 651.85 281.838 653.975 290.094 656.114C291.612 656.507 293.096 657.19 294.619 657.514C297.064 658.034 300.061 657.073 302.356 657.878C303.171 658.163 303.813 658.981 304.367 659.596C304.512 660.768 304.312 661.89 304.16 663.051C299.441 668.524 294.107 673.454 288.883 678.44C283.103 670.089 274.321 663.207 266.649 656.634C265.988 656.128 265.49 655.557 264.929 654.945Z"/>
	<path fill="#4FAC8D" d="M141.627 568.536C152.219 578.78 162.94 589.042 173.124 599.687C158.779 598.408 143.819 600.372 129.738 598.616Q132.013 598.599 134.284 598.465C131.984 593.761 117.01 579.355 112.531 574.107C118.206 571.424 136.448 575.941 141.443 571.341C142.081 570.753 141.688 569.363 141.627 568.536Z"/>
	<path fill="#FA762E" d="M511.69 182.878C514.972 184.089 528.781 200.438 532.275 204.114C552.02 224.898 572.895 244.799 593.163 265.091L761.385 433.603C787.573 459.822 814.284 485.508 840.066 512.133C830.664 520.318 822.013 529.618 813.12 538.376L762.937 587.953L637.131 712.742C615.411 734.394 594.262 756.641 572.042 777.787C551.262 759.105 531.885 738.239 512.321 718.278C508.801 719.501 458.283 771.484 452.233 777.829C436.473 763.072 421.374 747.503 405.976 732.357L290.935 618.271L222.489 550.282C209.744 537.607 196.191 525.508 184.518 511.821C205.581 489.398 227.704 467.931 249.472 446.193L326.152 369.146L511.69 182.878ZM511.36 220.823L322.828 408.743L253.473 478.802C242.619 489.727 232.126 501.28 220.702 511.595C230.125 521.755 240.655 530.961 250.522 540.692Q281.218 571.556 312.473 601.854L452.513 740.682C458.738 734.448 508.628 682.983 512.293 681.956C524.766 693.79 536.8 706.078 549.038 718.154C556.782 725.796 565.053 733.121 572.241 741.284C592.995 719.291 615.374 698.558 636.788 677.178L802.857 511.371C788.319 497.559 774.462 483.24 760.304 469.058Q727.1 436.065 694.272 402.699L568.493 276.785C559.622 267.929 518.094 223.8 511.36 220.823Z"/>
	<path fill="#FA762E" d="M516.474 470.201C527.593 470.594 538.828 470.122 549.963 470.165L629.726 470.346L675.426 470.366C683.705 470.368 692.344 470.889 700.56 469.998L680.43 490.649C673.99 488.486 629.839 490.373 619.063 490.424L516.847 490.499L517.035 517.334C517.057 522.134 517.441 527.529 516.677 532.261C516.374 511.588 516.54 490.878 516.474 470.201Z"/>
	<path fill="#3FE3B7" d="M319.189 469.967L502.026 469.917L502.176 492.027C498.188 492.069 486.06 491.207 483.06 492.969C478.608 492.402 473.563 492.951 469.05 493.022C465.497 493.001 452.39 491.932 450.215 493.873C447.551 492.523 439.876 493.478 436.609 493.21C430.258 492.784 423.764 493.007 417.416 493.385C413.137 493.494 408.75 493.232 404.498 493.482C402.47 492.592 387.824 492.668 385.526 493.477C382.464 492.068 348.768 493.03 342.096 492.677C334.116 485.651 326.066 478.077 319.189 469.967Z"/>
	<path fill="#FED97C" d="M726.344 527.308C733.18 531.924 740.338 540.188 746.147 546.194L638.674 653.288C616.926 675.072 595.685 697.831 573.012 718.634L572.49 718.862C568.402 717.274 557.331 704.641 553.524 700.778C574.56 678.372 596.776 657.035 618.526 635.322L726.344 527.308Z"/>
	<path fill="#FED97C" d="M294.796 525.32C300.792 528.615 317.198 546.911 323.195 552.947Q354.315 583.832 385.06 615.09C413.451 643.689 442.531 671.692 471.205 700.018Q462.426 710.062 452.647 719.136C427.145 695.086 402.692 669.627 377.819 644.903L276.433 544.589Q285.383 534.734 294.796 525.32Z"/>
	<path fill="#FA762E" d="M290.526 463.784C291.882 464.09 292.753 465.055 293.734 466.005C303.318 475.279 312.574 484.907 322.09 494.254L416.231 587.015C444.356 614.805 473.065 642.024 500.815 670.189C494.577 676.858 487.873 683.117 481.319 689.474Q466.846 675.346 452.748 660.844C441.006 648.653 428.725 636.892 416.742 624.932L329.548 537.878C318.099 526.331 305.949 515.436 294.952 503.451L265.361 533.517C257.77 526.673 250.487 519.78 243.535 512.283C258.697 495.648 274.72 479.804 290.526 463.784Z"/>
	<path fill="#FA762E" d="M731.58 462.289C735.732 464.045 772.632 504.213 782.232 511.801C774.351 520.597 765.452 528.436 757.079 536.751C746.916 527.003 736.493 516.991 727.201 506.42C712.947 521.076 697.581 534.72 683.083 549.156L574.039 659.186Q558.705 674.762 543.074 690.039C536.054 684.042 529.786 677.476 523.611 670.629C543.953 648.901 565.455 628.105 586.521 607.074Q659.425 535.057 731.58 462.289Z"/>
	<path fill="#3FE3B7" d="M483.06 492.969C486.06 491.207 498.188 492.069 502.176 492.027Q502.734 571.335 502.495 650.644Q492.675 641.731 483.509 632.146L483.481 555.599C478.708 555.665 473.765 556.013 469.009 555.715C469.007 576.275 469.214 596.875 468.73 617.429C462.617 611.521 456.332 605.709 450.585 599.443L450.529 556.036L436.805 556.031Q436.895 570.254 436.672 584.475C430.186 578.56 423.401 572.594 417.713 565.904C417.322 552.454 417.748 538.989 417.524 525.536L404.017 525.57C403.983 534.552 404.028 543.542 403.875 552.523C397.613 546.946 390.885 541.318 385.494 534.878L385.453 525.152C382.341 525.328 379.263 525.382 376.146 525.352L357.802 506.999Q371.654 506.79 385.507 506.96L385.526 493.477C387.824 492.668 402.47 492.592 404.498 493.482C408.75 493.232 413.137 493.494 417.416 493.385C423.764 493.007 430.258 492.784 436.609 493.21C439.876 493.478 447.551 492.523 450.215 493.873C452.39 491.932 465.497 493.001 469.05 493.022C473.563 492.951 478.608 492.402 483.06 492.969ZM469.05 493.022L469.158 507.527C473.772 507.562 478.4 507.671 483.012 507.559L483.06 492.969C478.608 492.402 473.563 492.951 469.05 493.022ZM469.047 525.37L469.126 538.906C473.107 538.925 479.543 539.828 483.182 538.576L483.31 538.34C483.292 534.032 483.155 529.691 483.279 525.387L469.047 525.37ZM436.609 493.21C436.609 497.975 436.678 502.751 436.564 507.515C441.07 507.547 445.584 507.636 450.089 507.541C450.089 503.027 449.841 498.366 450.215 493.873C447.551 492.523 439.876 493.478 436.609 493.21ZM436.68 525.465C436.714 530.012 436.845 534.582 436.696 539.126L450.405 539.021C450.676 534.526 450.547 530.01 450.503 525.509L436.68 525.465ZM404.498 493.482L404.534 507.051L417.456 507.026L417.416 493.385C413.137 493.494 408.75 493.232 404.498 493.482Z"/>
	<path fill="#FA762E" d="M327.457 428.725C343.039 428.267 358.756 428.744 374.348 428.777L458.566 428.785L696.695 428.574C705.981 436.516 714.454 445.952 722.651 455.002C713.701 455.263 704.706 455.079 695.75 455.073L435.108 454.971C390.11 454.944 345.047 454.402 300.055 454.948C304.732 448.86 320.645 431.198 327.457 428.725Z"/>
	<path fill="#FA762E" d="M516.847 490.499L619.063 490.424C629.839 490.373 673.99 488.486 680.43 490.649C673.677 498.575 665.96 505.751 658.558 513.065Q643.707 527.729 629.079 542.616Q573.52 599.164 516.981 654.73C518.253 623.797 517.159 592.73 516.871 561.785C516.78 551.983 516.383 542.051 516.677 532.261C517.441 527.529 517.057 522.134 517.035 517.334L516.847 490.499ZM561.607 525.465C552.844 535.321 543.407 544.473 533.999 553.705C542.945 563.145 551.99 572.61 561.458 581.53Q574.807 567.224 588.751 553.498Q580.205 545.216 571.986 536.608C568.508 532.935 565.228 528.988 561.607 525.465ZM632.057 498.591L632.079 509.508L643.905 509.476L643.949 498.565L632.057 498.591ZM599.54 498.107C599.608 501.797 599.821 505.55 599.694 509.235L610.939 509.109L611.015 498.034L599.54 498.107ZM537.354 498.123L537.467 508.983L548.335 508.989L548.282 498.084L537.354 498.123ZM568.037 498.462L568.028 509.039L579.043 509.002L579.034 498.396L568.037 498.462Z"/>
	<path fill="#FED97C" d="M519.331 276.238C528.412 276.111 537.583 275.814 546.643 276.523Q557.214 286.812 567.528 297.358C552.689 297.639 537.813 297.417 522.97 297.404L523.06 313.428L583.2 312.978C589.905 320.437 596.913 327.42 604.118 334.385C577.209 335.318 550.102 334.737 523.169 334.872Q523.33 342.653 523.236 350.436L619.66 350.476C627.419 357.092 635.605 364.8 641.604 373.042C627.711 373.869 613.536 373.363 599.606 373.386L523.034 373.488L523.049 389C568.186 388.975 613.398 388.43 658.527 389.039C667.103 395.118 675.532 404.382 682.062 412.549Q593.834 413.209 505.606 412.611L397.841 412.612C378.934 412.642 359.917 412.275 341.024 412.872C347.142 404.196 356.969 395.684 365.245 389.018C380.807 388.699 396.438 388.993 412.009 388.998L500.048 388.944L500.02 373.404C460.378 372.276 420.464 373.059 380.801 373.167C388.266 365.503 395.675 357.636 403.622 350.474L499.615 350.451L499.59 334.926L418.774 334.957C423.431 328.768 434.807 317.319 441.413 313.515Q470.589 313.512 499.759 312.984L499.742 297.57Q477.771 297.655 455.802 297.41C461.999 289.853 469.818 283.145 476.9 276.401C491.021 276.71 505.207 276.399 519.331 276.238Z"/>
</svg>
